<?xml version="1.0" standalone="no"?><!-- Generator: Gravit.io --><svg xmlns="http://www.w3.org/2000/svg" xmlns:xlink="http://www.w3.org/1999/xlink" style="isolation:isolate" viewBox="0 0 275 275" width="275" height="275">
    <path d=" M 220.966 232.366 L 161.868 246.14 L 102.77 259.913 C 101.427 260.227 99.581 259.653 98.652 258.633 L 57.385 213.332 L 16.119 168.031 C 15.189 167.011 14.759 165.11 15.158 163.789 L 33.017 104.692 L 50.876 45.595 C 51.275 44.274 52.69 42.947 54.034 42.634 L 113.132 28.86 L 172.23 15.087 C 173.573 14.773 175.419 15.347 176.348 16.367 L 217.615 61.668 L 258.881 106.969 C 259.811 107.989 260.241 109.89 259.842 111.211 L 241.983 170.308 L 224.124 229.405 C 223.725 230.726 222.31 232.053 220.966 232.366 Z " fill="rgb(255,255,255)" stroke-width="2" stroke="rgb(65,105,225)" stroke-miterlimit="3"/>
    <path d=" M 75.408 189.999 L 75.408 85.001 L 85.957 85.001 L 85.957 129.039 L 139.412 129.039 L 139.412 85.001 L 149.89 85.001 L 149.89 189.999 L 139.412 189.999 L 139.412 139.376 L 85.957 139.376 L 85.957 189.999 L 75.408 189.999 Z " fill="rgb(65,105,225)"/>
    <path d=" M 139.412 189.999 L 139.412 85.001 L 199.592 85.001 L 199.592 95.338 L 149.89 95.338 L 149.89 128.19 L 180.193 128.19 L 180.193 138.385 L 149.89 138.385 L 149.89 179.591 L 199.167 179.591 L 199.167 189.999 L 139.412 189.999 Z " fill="rgb(65,105,225)"/>
</svg>